# 01_detached_reversed_cap; synthetic fixture; coordinates in millimetres
# Preserve vertex IDs and triangle winding. Do not auto-process.
v 20 0 0
v 19.903694533443939 1.9603428065912121 0
v 19.615705608064609 3.9018064403225647 0
v 19.138806714644176 5.8056935450892464 0
v 18.477590650225736 7.6536686473017959 0
v 17.638425286967102 9.4279347365199531 0
v 16.629392246050905 11.111404660392044 0
v 15.460209067254739 12.687865683272911 0
v 14.142135623730951 14.142135623730949 0
v 12.687865683272911 15.460209067254739 0
v 11.111404660392045 16.629392246050905 0
v 9.4279347365199566 17.638425286967099 0
v 7.6536686473017967 18.477590650225736 0
v 5.8056935450892464 19.138806714644179 0
v 3.9018064403225665 19.615705608064609 0
v 1.9603428065912154 19.903694533443936 0
v 1.2246467991473533e-15 20 0
v -1.960342806591213 19.903694533443939 0
v -3.9018064403225639 19.615705608064609 0
v -5.8056935450892428 19.138806714644179 0
v -7.6536686473017941 18.477590650225736 0
v -9.4279347365199548 17.638425286967102 0
v -11.11140466039204 16.629392246050909 0
v -12.687865683272907 15.460209067254741 0
v -14.142135623730949 14.142135623730951 0
v -15.460209067254739 12.687865683272911 0
v -16.629392246050905 11.111404660392044 0
v -17.638425286967099 9.4279347365199566 0
v -18.477590650225736 7.6536686473017976 0
v -19.138806714644176 5.8056935450892482 0
v -19.615705608064609 3.9018064403225723 0
v -19.903694533443936 1.9603428065912165 0
v -20 2.4492935982947065e-15 0
v -19.903694533443939 -1.9603428065912119 0
v -19.615705608064609 -3.9018064403225674 0
v -19.138806714644179 -5.805693545089242 0
v -18.477590650225736 -7.6536686473017932 0
v -17.638425286967102 -9.4279347365199531 0
v -16.629392246050909 -11.11140466039204 0
v -15.460209067254741 -12.687865683272905 0
v -14.142135623730955 -14.142135623730949 0
v -12.687865683272918 -15.460209067254734 0
v -11.111404660392044 -16.629392246050905 0
v -9.4279347365199566 -17.638425286967099 0
v -7.6536686473018065 -18.477590650225729 0
v -5.8056935450892491 -19.138806714644176 0
v -3.9018064403225732 -19.615705608064605 0
v -1.960342806591209 -19.903694533443939 0
v -3.6739403974420592e-15 -20 0
v 1.9603428065912019 -19.903694533443939 0
v 3.9018064403225661 -19.615705608064609 0
v 5.8056935450892411 -19.138806714644179 0
v 7.6536686473018003 -18.477590650225732 0
v 9.4279347365199513 -17.638425286967102 0
v 11.111404660392036 -16.629392246050909 0
v 12.687865683272912 -15.460209067254738 0
v 14.142135623730947 -14.142135623730955 0
v 15.460209067254734 -12.687865683272918 0
v 16.629392246050905 -11.111404660392044 0
v 17.638425286967095 -9.4279347365199584 0
v 18.477590650225729 -7.6536686473018083 0
v 19.138806714644176 -5.80569354508925 0
v 19.615705608064605 -3.9018064403225745 0
v 19.903694533443939 -1.9603428065912101 0
v 20 0 5
v 19.903694533443939 1.9603428065912121 5
v 19.615705608064609 3.9018064403225647 5
v 19.138806714644176 5.8056935450892464 5
v 18.477590650225736 7.6536686473017959 5
v 17.638425286967102 9.4279347365199531 5
v 16.629392246050905 11.111404660392044 5
v 15.460209067254739 12.687865683272911 5
v 14.142135623730951 14.142135623730949 5
v 12.687865683272911 15.460209067254739 5
v 11.111404660392045 16.629392246050905 5
v 9.4279347365199566 17.638425286967099 5
v 7.6536686473017967 18.477590650225736 5
v 5.8056935450892464 19.138806714644179 5
v 3.9018064403225665 19.615705608064609 5
v 1.9603428065912154 19.903694533443936 5
v 1.2246467991473533e-15 20 5
v -1.960342806591213 19.903694533443939 5
v -3.9018064403225639 19.615705608064609 5
v -5.8056935450892428 19.138806714644179 5
v -7.6536686473017941 18.477590650225736 5
v -9.4279347365199548 17.638425286967102 5
v -11.11140466039204 16.629392246050909 5
v -12.687865683272907 15.460209067254741 5
v -14.142135623730949 14.142135623730951 5
v -15.460209067254739 12.687865683272911 5
v -16.629392246050905 11.111404660392044 5
v -17.638425286967099 9.4279347365199566 5
v -18.477590650225736 7.6536686473017976 5
v -19.138806714644176 5.8056935450892482 5
v -19.615705608064609 3.9018064403225723 5
v -19.903694533443936 1.9603428065912165 5
v -20 2.4492935982947065e-15 5
v -19.903694533443939 -1.9603428065912119 5
v -19.615705608064609 -3.9018064403225674 5
v -19.138806714644179 -5.805693545089242 5
v -18.477590650225736 -7.6536686473017932 5
v -17.638425286967102 -9.4279347365199531 5
v -16.629392246050909 -11.11140466039204 5
v -15.460209067254741 -12.687865683272905 5
v -14.142135623730955 -14.142135623730949 5
v -12.687865683272918 -15.460209067254734 5
v -11.111404660392044 -16.629392246050905 5
v -9.4279347365199566 -17.638425286967099 5
v -7.6536686473018065 -18.477590650225729 5
v -5.8056935450892491 -19.138806714644176 5
v -3.9018064403225732 -19.615705608064605 5
v -1.960342806591209 -19.903694533443939 5
v -3.6739403974420592e-15 -20 5
v 1.9603428065912019 -19.903694533443939 5
v 3.9018064403225661 -19.615705608064609 5
v 5.8056935450892411 -19.138806714644179 5
v 7.6536686473018003 -18.477590650225732 5
v 9.4279347365199513 -17.638425286967102 5
v 11.111404660392036 -16.629392246050909 5
v 12.687865683272912 -15.460209067254738 5
v 14.142135623730947 -14.142135623730955 5
v 15.460209067254734 -12.687865683272918 5
v 16.629392246050905 -11.111404660392044 5
v 17.638425286967095 -9.4279347365199584 5
v 18.477590650225729 -7.6536686473018083 5
v 19.138806714644176 -5.80569354508925 5
v 19.615705608064605 -3.9018064403225745 5
v 19.903694533443939 -1.9603428065912101 5
v 9 0 5
v 8.9566625400497717 0.88215426296604549 5
v 8.8270675236290739 1.7558128981451542 5
v 8.6124630215898801 2.6125620952901611 5
v 8.31491579260158 3.4441508912858079 5
v 7.9372913791351953 4.2425706314339786 5
v 7.4832265107229068 5.0001320971764196 5
v 6.9570940802646328 5.7095395574728096 5
v 6.3639610306789285 6.3639610306789276 5
v 5.7095395574728096 6.9570940802646328 5
v 5.0001320971764205 7.4832265107229068 5
v 4.2425706314339804 7.9372913791351944 5
v 3.4441508912858083 8.31491579260158 5
v 2.6125620952901611 8.6124630215898801 5
v 1.7558128981451551 8.8270675236290739 5
v 0.88215426296604693 8.9566625400497717 5
v 5.5109105961630896e-16 9 5
v -0.88215426296604582 8.9566625400497717 5
v -1.7558128981451537 8.8270675236290739 5
v -2.6125620952901594 8.6124630215898801 5
v -3.4441508912858074 8.31491579260158 5
v -4.2425706314339795 7.9372913791351953 5
v -5.0001320971764178 7.4832265107229095 5
v -5.7095395574728087 6.9570940802646337 5
v -6.3639610306789276 6.3639610306789285 5
v -6.9570940802646328 5.7095395574728096 5
v -7.4832265107229077 5.0001320971764196 5
v -7.9372913791351944 4.2425706314339804 5
v -8.31491579260158 3.4441508912858092 5
v -8.6124630215898801 2.6125620952901616 5
v -8.8270675236290739 1.7558128981451575 5
v -8.9566625400497717 0.88215426296604749 5
v -9 1.1021821192326179e-15 5
v -8.9566625400497717 -0.88215426296604527 5
v -8.8270675236290739 -1.7558128981451553 5
v -8.6124630215898801 -2.6125620952901589 5
v -8.3149157926015818 -3.444150891285807 5
v -7.9372913791351953 -4.2425706314339786 5
v -7.4832265107229095 -5.0001320971764178 5
v -6.9570940802646337 -5.7095395574728069 5
v -6.3639610306789294 -6.3639610306789276 5
v -5.7095395574728132 -6.9570940802646302 5
v -5.0001320971764196 -7.4832265107229068 5
v -4.2425706314339804 -7.9372913791351944 5
v -3.4441508912858132 -8.3149157926015782 5
v -2.612562095290162 -8.6124630215898801 5
v -1.755812898145158 -8.8270675236290721 5
v -0.88215426296604404 -8.9566625400497717 5
v -1.6532731788489267e-15 -9 5
v 0.88215426296604083 -8.9566625400497717 5
v 1.7558128981451548 -8.8270675236290739 5
v 2.6125620952901585 -8.6124630215898801 5
v 3.4441508912858101 -8.31491579260158 5
v 4.2425706314339786 -7.9372913791351953 5
v 5.0001320971764169 -7.4832265107229095 5
v 5.7095395574728105 -6.9570940802646319 5
v 6.3639610306789258 -6.3639610306789294 5
v 6.9570940802646302 -5.7095395574728132 5
v 7.4832265107229068 -5.0001320971764196 5
v 7.9372913791351936 -4.2425706314339813 5
v 8.3149157926015782 -3.4441508912858136 5
v 8.6124630215898801 -2.6125620952901625 5
v 8.8270675236290721 -1.7558128981451584 5
v 8.9566625400497717 -0.8821542629660446 5
v 9 0 17
v 8.9566625400497717 0.88215426296604549 17
v 8.8270675236290739 1.7558128981451542 17
v 8.6124630215898801 2.6125620952901611 17
v 8.31491579260158 3.4441508912858079 17
v 7.9372913791351953 4.2425706314339786 17
v 7.4832265107229068 5.0001320971764196 17
v 6.9570940802646328 5.7095395574728096 17
v 6.3639610306789285 6.3639610306789276 17
v 5.7095395574728096 6.9570940802646328 17
v 5.0001320971764205 7.4832265107229068 17
v 4.2425706314339804 7.9372913791351944 17
v 3.4441508912858083 8.31491579260158 17
v 2.6125620952901611 8.6124630215898801 17
v 1.7558128981451551 8.8270675236290739 17
v 0.88215426296604693 8.9566625400497717 17
v 5.5109105961630896e-16 9 17
v -0.88215426296604582 8.9566625400497717 17
v -1.7558128981451537 8.8270675236290739 17
v -2.6125620952901594 8.6124630215898801 17
v -3.4441508912858074 8.31491579260158 17
v -4.2425706314339795 7.9372913791351953 17
v -5.0001320971764178 7.4832265107229095 17
v -5.7095395574728087 6.9570940802646337 17
v -6.3639610306789276 6.3639610306789285 17
v -6.9570940802646328 5.7095395574728096 17
v -7.4832265107229077 5.0001320971764196 17
v -7.9372913791351944 4.2425706314339804 17
v -8.31491579260158 3.4441508912858092 17
v -8.6124630215898801 2.6125620952901616 17
v -8.8270675236290739 1.7558128981451575 17
v -8.9566625400497717 0.88215426296604749 17
v -9 1.1021821192326179e-15 17
v -8.9566625400497717 -0.88215426296604527 17
v -8.8270675236290739 -1.7558128981451553 17
v -8.6124630215898801 -2.6125620952901589 17
v -8.3149157926015818 -3.444150891285807 17
v -7.9372913791351953 -4.2425706314339786 17
v -7.4832265107229095 -5.0001320971764178 17
v -6.9570940802646337 -5.7095395574728069 17
v -6.3639610306789294 -6.3639610306789276 17
v -5.7095395574728132 -6.9570940802646302 17
v -5.0001320971764196 -7.4832265107229068 17
v -4.2425706314339804 -7.9372913791351944 17
v -3.4441508912858132 -8.3149157926015782 17
v -2.612562095290162 -8.6124630215898801 17
v -1.755812898145158 -8.8270675236290721 17
v -0.88215426296604404 -8.9566625400497717 17
v -1.6532731788489267e-15 -9 17
v 0.88215426296604083 -8.9566625400497717 17
v 1.7558128981451548 -8.8270675236290739 17
v 2.6125620952901585 -8.6124630215898801 17
v 3.4441508912858101 -8.31491579260158 17
v 4.2425706314339786 -7.9372913791351953 17
v 5.0001320971764169 -7.4832265107229095 17
v 5.7095395574728105 -6.9570940802646319 17
v 6.3639610306789258 -6.3639610306789294 17
v 6.9570940802646302 -5.7095395574728132 17
v 7.4832265107229068 -5.0001320971764196 17
v 7.9372913791351936 -4.2425706314339813 17
v 8.3149157926015782 -3.4441508912858136 17
v 8.6124630215898801 -2.6125620952901625 17
v 8.8270675236290721 -1.7558128981451584 17
v 8.9566625400497717 -0.8821542629660446 17
v 9 0 17.05906775770249
v 8.9566625400497717 0.88215426296604549 17.05906775770249
v 8.8270675236290739 1.7558128981451542 17.05906775770249
v 8.6124630215898801 2.6125620952901611 17.05906775770249
v 8.31491579260158 3.4441508912858079 17.05906775770249
v 7.9372913791351953 4.2425706314339786 17.05906775770249
v 7.4832265107229068 5.0001320971764196 17.05906775770249
v 6.9570940802646328 5.7095395574728096 17.05906775770249
v 6.3639610306789285 6.3639610306789276 17.05906775770249
v 5.7095395574728096 6.9570940802646328 17.05906775770249
v 5.0001320971764205 7.4832265107229068 17.05906775770249
v 4.2425706314339804 7.9372913791351944 17.05906775770249
v 3.4441508912858083 8.31491579260158 17.05906775770249
v 2.6125620952901611 8.6124630215898801 17.05906775770249
v 1.7558128981451551 8.8270675236290739 17.05906775770249
v 0.88215426296604693 8.9566625400497717 17.05906775770249
v 5.5109105961630896e-16 9 17.05906775770249
v -0.88215426296604582 8.9566625400497717 17.05906775770249
v -1.7558128981451537 8.8270675236290739 17.05906775770249
v -2.6125620952901594 8.6124630215898801 17.05906775770249
v -3.4441508912858074 8.31491579260158 17.05906775770249
v -4.2425706314339795 7.9372913791351953 17.05906775770249
v -5.0001320971764178 7.4832265107229095 17.05906775770249
v -5.7095395574728087 6.9570940802646337 17.05906775770249
v -6.3639610306789276 6.3639610306789285 17.05906775770249
v -6.9570940802646328 5.7095395574728096 17.05906775770249
v -7.4832265107229077 5.0001320971764196 17.05906775770249
v -7.9372913791351944 4.2425706314339804 17.05906775770249
v -8.31491579260158 3.4441508912858092 17.05906775770249
v -8.6124630215898801 2.6125620952901616 17.05906775770249
v -8.8270675236290739 1.7558128981451575 17.05906775770249
v -8.9566625400497717 0.88215426296604749 17.05906775770249
v -9 1.1021821192326179e-15 17.05906775770249
v -8.9566625400497717 -0.88215426296604527 17.05906775770249
v -8.8270675236290739 -1.7558128981451553 17.05906775770249
v -8.6124630215898801 -2.6125620952901589 17.05906775770249
v -8.3149157926015818 -3.444150891285807 17.05906775770249
v -7.9372913791351953 -4.2425706314339786 17.05906775770249
v -7.4832265107229095 -5.0001320971764178 17.05906775770249
v -6.9570940802646337 -5.7095395574728069 17.05906775770249
v -6.3639610306789294 -6.3639610306789276 17.05906775770249
v -5.7095395574728132 -6.9570940802646302 17.05906775770249
v -5.0001320971764196 -7.4832265107229068 17.05906775770249
v -4.2425706314339804 -7.9372913791351944 17.05906775770249
v -3.4441508912858132 -8.3149157926015782 17.05906775770249
v -2.612562095290162 -8.6124630215898801 17.05906775770249
v -1.755812898145158 -8.8270675236290721 17.05906775770249
v -0.88215426296604404 -8.9566625400497717 17.05906775770249
v -1.6532731788489267e-15 -9 17.05906775770249
v 0.88215426296604083 -8.9566625400497717 17.05906775770249
v 1.7558128981451548 -8.8270675236290739 17.05906775770249
v 2.6125620952901585 -8.6124630215898801 17.05906775770249
v 3.4441508912858101 -8.31491579260158 17.05906775770249
v 4.2425706314339786 -7.9372913791351953 17.05906775770249
v 5.0001320971764169 -7.4832265107229095 17.05906775770249
v 5.7095395574728105 -6.9570940802646319 17.05906775770249
v 6.3639610306789258 -6.3639610306789294 17.05906775770249
v 6.9570940802646302 -5.7095395574728132 17.05906775770249
v 7.4832265107229068 -5.0001320971764196 17.05906775770249
v 7.9372913791351936 -4.2425706314339813 17.05906775770249
v 8.3149157926015782 -3.4441508912858136 17.05906775770249
v 8.6124630215898801 -2.6125620952901625 17.05906775770249
v 8.8270675236290721 -1.7558128981451584 17.05906775770249
v 8.9566625400497717 -0.8821542629660446 17.05906775770249
f 1 2 66
f 1 66 65
f 2 3 67
f 2 67 66
f 3 4 68
f 3 68 67
f 4 5 69
f 4 69 68
f 5 6 70
f 5 70 69
f 6 7 71
f 6 71 70
f 7 8 72
f 7 72 71
f 8 9 73
f 8 73 72
f 9 10 74
f 9 74 73
f 10 11 75
f 10 75 74
f 11 12 76
f 11 76 75
f 12 13 77
f 12 77 76
f 13 14 78
f 13 78 77
f 14 15 79
f 14 79 78
f 15 16 80
f 15 80 79
f 16 17 81
f 16 81 80
f 17 18 82
f 17 82 81
f 18 19 83
f 18 83 82
f 19 20 84
f 19 84 83
f 20 21 85
f 20 85 84
f 21 22 86
f 21 86 85
f 22 23 87
f 22 87 86
f 23 24 88
f 23 88 87
f 24 25 89
f 24 89 88
f 25 26 90
f 25 90 89
f 26 27 91
f 26 91 90
f 27 28 92
f 27 92 91
f 28 29 93
f 28 93 92
f 29 30 94
f 29 94 93
f 30 31 95
f 30 95 94
f 31 32 96
f 31 96 95
f 32 33 97
f 32 97 96
f 33 34 98
f 33 98 97
f 34 35 99
f 34 99 98
f 35 36 100
f 35 100 99
f 36 37 101
f 36 101 100
f 37 38 102
f 37 102 101
f 38 39 103
f 38 103 102
f 39 40 104
f 39 104 103
f 40 41 105
f 40 105 104
f 41 42 106
f 41 106 105
f 42 43 107
f 42 107 106
f 43 44 108
f 43 108 107
f 44 45 109
f 44 109 108
f 45 46 110
f 45 110 109
f 46 47 111
f 46 111 110
f 47 48 112
f 47 112 111
f 48 49 113
f 48 113 112
f 49 50 114
f 49 114 113
f 50 51 115
f 50 115 114
f 51 52 116
f 51 116 115
f 52 53 117
f 52 117 116
f 53 54 118
f 53 118 117
f 54 55 119
f 54 119 118
f 55 56 120
f 55 120 119
f 56 57 121
f 56 121 120
f 57 58 122
f 57 122 121
f 58 59 123
f 58 123 122
f 59 60 124
f 59 124 123
f 60 61 125
f 60 125 124
f 61 62 126
f 61 126 125
f 62 63 127
f 62 127 126
f 63 64 128
f 63 128 127
f 64 1 65
f 64 65 128
f 129 130 194
f 129 194 193
f 130 131 195
f 130 195 194
f 131 132 196
f 131 196 195
f 132 133 197
f 132 197 196
f 133 134 198
f 133 198 197
f 134 135 199
f 134 199 198
f 135 136 200
f 135 200 199
f 136 137 201
f 136 201 200
f 137 138 202
f 137 202 201
f 138 139 203
f 138 203 202
f 139 140 204
f 139 204 203
f 140 141 205
f 140 205 204
f 141 142 206
f 141 206 205
f 142 143 207
f 142 207 206
f 143 144 208
f 143 208 207
f 144 145 209
f 144 209 208
f 145 146 210
f 145 210 209
f 146 147 211
f 146 211 210
f 147 148 212
f 147 212 211
f 148 149 213
f 148 213 212
f 149 150 214
f 149 214 213
f 150 151 215
f 150 215 214
f 151 152 216
f 151 216 215
f 152 153 217
f 152 217 216
f 153 154 218
f 153 218 217
f 154 155 219
f 154 219 218
f 155 156 220
f 155 220 219
f 156 157 221
f 156 221 220
f 157 158 222
f 157 222 221
f 158 159 223
f 158 223 222
f 159 160 224
f 159 224 223
f 160 161 225
f 160 225 224
f 161 162 226
f 161 226 225
f 162 163 227
f 162 227 226
f 163 164 228
f 163 228 227
f 164 165 229
f 164 229 228
f 165 166 230
f 165 230 229
f 166 167 231
f 166 231 230
f 167 168 232
f 167 232 231
f 168 169 233
f 168 233 232
f 169 170 234
f 169 234 233
f 170 171 235
f 170 235 234
f 171 172 236
f 171 236 235
f 172 173 237
f 172 237 236
f 173 174 238
f 173 238 237
f 174 175 239
f 174 239 238
f 175 176 240
f 175 240 239
f 176 177 241
f 176 241 240
f 177 178 242
f 177 242 241
f 178 179 243
f 178 243 242
f 179 180 244
f 179 244 243
f 180 181 245
f 180 245 244
f 181 182 246
f 181 246 245
f 182 183 247
f 182 247 246
f 183 184 248
f 183 248 247
f 184 185 249
f 184 249 248
f 185 186 250
f 185 250 249
f 186 187 251
f 186 251 250
f 187 188 252
f 187 252 251
f 188 189 253
f 188 253 252
f 189 190 254
f 189 254 253
f 190 191 255
f 190 255 254
f 191 192 256
f 191 256 255
f 192 129 193
f 192 193 256
f 65 66 130
f 65 130 129
f 66 67 131
f 66 131 130
f 67 68 132
f 67 132 131
f 68 69 133
f 68 133 132
f 69 70 134
f 69 134 133
f 70 71 135
f 70 135 134
f 71 72 136
f 71 136 135
f 72 73 137
f 72 137 136
f 73 74 138
f 73 138 137
f 74 75 139
f 74 139 138
f 75 76 140
f 75 140 139
f 76 77 141
f 76 141 140
f 77 78 142
f 77 142 141
f 78 79 143
f 78 143 142
f 79 80 144
f 79 144 143
f 80 81 145
f 80 145 144
f 81 82 146
f 81 146 145
f 82 83 147
f 82 147 146
f 83 84 148
f 83 148 147
f 84 85 149
f 84 149 148
f 85 86 150
f 85 150 149
f 86 87 151
f 86 151 150
f 87 88 152
f 87 152 151
f 88 89 153
f 88 153 152
f 89 90 154
f 89 154 153
f 90 91 155
f 90 155 154
f 91 92 156
f 91 156 155
f 92 93 157
f 92 157 156
f 93 94 158
f 93 158 157
f 94 95 159
f 94 159 158
f 95 96 160
f 95 160 159
f 96 97 161
f 96 161 160
f 97 98 162
f 97 162 161
f 98 99 163
f 98 163 162
f 99 100 164
f 99 164 163
f 100 101 165
f 100 165 164
f 101 102 166
f 101 166 165
f 102 103 167
f 102 167 166
f 103 104 168
f 103 168 167
f 104 105 169
f 104 169 168
f 105 106 170
f 105 170 169
f 106 107 171
f 106 171 170
f 107 108 172
f 107 172 171
f 108 109 173
f 108 173 172
f 109 110 174
f 109 174 173
f 110 111 175
f 110 175 174
f 111 112 176
f 111 176 175
f 112 113 177
f 112 177 176
f 113 114 178
f 113 178 177
f 114 115 179
f 114 179 178
f 115 116 180
f 115 180 179
f 116 117 181
f 116 181 180
f 117 118 182
f 117 182 181
f 118 119 183
f 118 183 182
f 119 120 184
f 119 184 183
f 120 121 185
f 120 185 184
f 121 122 186
f 121 186 185
f 122 123 187
f 122 187 186
f 123 124 188
f 123 188 187
f 124 125 189
f 124 189 188
f 125 126 190
f 125 190 189
f 126 127 191
f 126 191 190
f 127 128 192
f 127 192 191
f 128 65 129
f 128 129 192
f 1 3 2
f 1 4 3
f 1 5 4
f 1 6 5
f 1 7 6
f 1 8 7
f 1 9 8
f 1 10 9
f 1 11 10
f 1 12 11
f 1 13 12
f 1 14 13
f 1 15 14
f 1 16 15
f 1 17 16
f 1 18 17
f 1 19 18
f 1 20 19
f 1 21 20
f 1 22 21
f 1 23 22
f 1 24 23
f 1 25 24
f 1 26 25
f 1 27 26
f 1 28 27
f 1 29 28
f 1 30 29
f 1 31 30
f 1 32 31
f 1 33 32
f 1 34 33
f 1 35 34
f 1 36 35
f 1 37 36
f 1 38 37
f 1 39 38
f 1 40 39
f 1 41 40
f 1 42 41
f 1 43 42
f 1 44 43
f 1 45 44
f 1 46 45
f 1 47 46
f 1 48 47
f 1 49 48
f 1 50 49
f 1 51 50
f 1 52 51
f 1 53 52
f 1 54 53
f 1 55 54
f 1 56 55
f 1 57 56
f 1 58 57
f 1 59 58
f 1 60 59
f 1 61 60
f 1 62 61
f 1 63 62
f 1 64 63
f 259 258 257
f 260 259 257
f 261 260 257
f 262 261 257
f 263 262 257
f 264 263 257
f 265 264 257
f 266 265 257
f 267 266 257
f 268 267 257
f 269 268 257
f 270 269 257
f 271 270 257
f 272 271 257
f 273 272 257
f 274 273 257
f 275 274 257
f 276 275 257
f 277 276 257
f 278 277 257
f 279 278 257
f 280 279 257
f 281 280 257
f 282 281 257
f 283 282 257
f 284 283 257
f 285 284 257
f 286 285 257
f 287 286 257
f 288 287 257
f 289 288 257
f 290 289 257
f 291 290 257
f 292 291 257
f 293 292 257
f 294 293 257
f 295 294 257
f 296 295 257
f 297 296 257
f 298 297 257
f 299 298 257
f 300 299 257
f 301 300 257
f 302 301 257
f 303 302 257
f 304 303 257
f 305 304 257
f 306 305 257
f 307 306 257
f 308 307 257
f 309 308 257
f 310 309 257
f 311 310 257
f 312 311 257
f 313 312 257
f 314 313 257
f 315 314 257
f 316 315 257
f 317 316 257
f 318 317 257
f 319 318 257
f 320 319 257
