# 02_pinched_vertex; synthetic fixture; coordinates in millimetres
# Preserve vertex IDs and triangle winding. Do not auto-process.
v 20 0 0
v 19.903694533443939 1.9603428065912121 0
v 19.615705608064609 3.9018064403225647 0
v 19.138806714644176 5.8056935450892464 0
v 18.477590650225736 7.6536686473017959 0
v 17.638425286967102 9.4279347365199531 0
v 16.629392246050905 11.111404660392044 0
v 15.460209067254739 12.687865683272911 0
v 14.142135623730951 14.142135623730949 0
v 12.687865683272911 15.460209067254739 0
v 11.111404660392045 16.629392246050905 0
v 9.4279347365199566 17.638425286967099 0
v 7.6536686473017967 18.477590650225736 0
v 5.8056935450892464 19.138806714644179 0
v 3.9018064403225665 19.615705608064609 0
v 1.9603428065912154 19.903694533443936 0
v 1.2246467991473533e-15 20 0
v -1.960342806591213 19.903694533443939 0
v -3.9018064403225639 19.615705608064609 0
v -5.8056935450892428 19.138806714644179 0
v -7.6536686473017941 18.477590650225736 0
v -9.4279347365199548 17.638425286967102 0
v -11.11140466039204 16.629392246050909 0
v -12.687865683272907 15.460209067254741 0
v -14.142135623730949 14.142135623730951 0
v -15.460209067254739 12.687865683272911 0
v -16.629392246050905 11.111404660392044 0
v -17.638425286967099 9.4279347365199566 0
v -18.477590650225736 7.6536686473017976 0
v -19.138806714644176 5.8056935450892482 0
v -19.615705608064609 3.9018064403225723 0
v -19.903694533443936 1.9603428065912165 0
v -20 2.4492935982947065e-15 0
v -19.903694533443939 -1.9603428065912119 0
v -19.615705608064609 -3.9018064403225674 0
v -19.138806714644179 -5.805693545089242 0
v -18.477590650225736 -7.6536686473017932 0
v -17.638425286967102 -9.4279347365199531 0
v -16.629392246050909 -11.11140466039204 0
v -15.460209067254741 -12.687865683272905 0
v -14.142135623730955 -14.142135623730949 0
v -12.687865683272918 -15.460209067254734 0
v -11.111404660392044 -16.629392246050905 0
v -9.4279347365199566 -17.638425286967099 0
v -7.6536686473018065 -18.477590650225729 0
v -5.8056935450892491 -19.138806714644176 0
v -3.9018064403225732 -19.615705608064605 0
v -1.960342806591209 -19.903694533443939 0
v -3.6739403974420592e-15 -20 0
v 1.9603428065912019 -19.903694533443939 0
v 3.9018064403225661 -19.615705608064609 0
v 5.8056935450892411 -19.138806714644179 0
v 7.6536686473018003 -18.477590650225732 0
v 9.4279347365199513 -17.638425286967102 0
v 11.111404660392036 -16.629392246050909 0
v 12.687865683272912 -15.460209067254738 0
v 14.142135623730947 -14.142135623730955 0
v 15.460209067254734 -12.687865683272918 0
v 16.629392246050905 -11.111404660392044 0
v 17.638425286967095 -9.4279347365199584 0
v 18.477590650225729 -7.6536686473018083 0
v 19.138806714644176 -5.80569354508925 0
v 19.615705608064605 -3.9018064403225745 0
v 19.903694533443939 -1.9603428065912101 0
v 20 0 5
v 19.903694533443939 1.9603428065912121 5
v 19.615705608064609 3.9018064403225647 5
v 19.138806714644176 5.8056935450892464 5
v 18.477590650225736 7.6536686473017959 5
v 17.638425286967102 9.4279347365199531 5
v 16.629392246050905 11.111404660392044 5
v 15.460209067254739 12.687865683272911 5
v 14.142135623730951 14.142135623730949 5
v 12.687865683272911 15.460209067254739 5
v 11.111404660392045 16.629392246050905 5
v 9.4279347365199566 17.638425286967099 5
v 7.6536686473017967 18.477590650225736 5
v 5.8056935450892464 19.138806714644179 5
v 3.9018064403225665 19.615705608064609 5
v 1.9603428065912154 19.903694533443936 5
v 1.2246467991473533e-15 20 5
v -1.960342806591213 19.903694533443939 5
v -3.9018064403225639 19.615705608064609 5
v -5.8056935450892428 19.138806714644179 5
v -7.6536686473017941 18.477590650225736 5
v -9.4279347365199548 17.638425286967102 5
v -11.11140466039204 16.629392246050909 5
v -12.687865683272907 15.460209067254741 5
v -14.142135623730949 14.142135623730951 5
v -15.460209067254739 12.687865683272911 5
v -16.629392246050905 11.111404660392044 5
v -17.638425286967099 9.4279347365199566 5
v -18.477590650225736 7.6536686473017976 5
v -19.138806714644176 5.8056935450892482 5
v -19.615705608064609 3.9018064403225723 5
v -19.903694533443936 1.9603428065912165 5
v -20 2.4492935982947065e-15 5
v -19.903694533443939 -1.9603428065912119 5
v -19.615705608064609 -3.9018064403225674 5
v -19.138806714644179 -5.805693545089242 5
v -18.477590650225736 -7.6536686473017932 5
v -17.638425286967102 -9.4279347365199531 5
v -16.629392246050909 -11.11140466039204 5
v -15.460209067254741 -12.687865683272905 5
v -14.142135623730955 -14.142135623730949 5
v -12.687865683272918 -15.460209067254734 5
v -11.111404660392044 -16.629392246050905 5
v -9.4279347365199566 -17.638425286967099 5
v -7.6536686473018065 -18.477590650225729 5
v -5.8056935450892491 -19.138806714644176 5
v -3.9018064403225732 -19.615705608064605 5
v -1.960342806591209 -19.903694533443939 5
v -3.6739403974420592e-15 -20 5
v 1.9603428065912019 -19.903694533443939 5
v 3.9018064403225661 -19.615705608064609 5
v 5.8056935450892411 -19.138806714644179 5
v 7.6536686473018003 -18.477590650225732 5
v 9.4279347365199513 -17.638425286967102 5
v 11.111404660392036 -16.629392246050909 5
v 12.687865683272912 -15.460209067254738 5
v 14.142135623730947 -14.142135623730955 5
v 15.460209067254734 -12.687865683272918 5
v 16.629392246050905 -11.111404660392044 5
v 17.638425286967095 -9.4279347365199584 5
v 18.477590650225729 -7.6536686473018083 5
v 19.138806714644176 -5.80569354508925 5
v 19.615705608064605 -3.9018064403225745 5
v 19.903694533443939 -1.9603428065912101 5
v 9 0 5
v 8.9566625400497717 0.88215426296604549 5
v 8.8270675236290739 1.7558128981451542 5
v 8.6124630215898801 2.6125620952901611 5
v 8.31491579260158 3.4441508912858079 5
v 7.9372913791351953 4.2425706314339786 5
v 7.4832265107229068 5.0001320971764196 5
v 6.9570940802646328 5.7095395574728096 5
v 6.3639610306789285 6.3639610306789276 5
v 5.7095395574728096 6.9570940802646328 5
v 5.0001320971764205 7.4832265107229068 5
v 4.2425706314339804 7.9372913791351944 5
v 3.4441508912858083 8.31491579260158 5
v 2.6125620952901611 8.6124630215898801 5
v 1.7558128981451551 8.8270675236290739 5
v 0.88215426296604693 8.9566625400497717 5
v 5.5109105961630896e-16 9 5
v -0.88215426296604582 8.9566625400497717 5
v -1.7558128981451537 8.8270675236290739 5
v -2.6125620952901594 8.6124630215898801 5
v -3.4441508912858074 8.31491579260158 5
v -4.2425706314339795 7.9372913791351953 5
v -5.0001320971764178 7.4832265107229095 5
v -5.7095395574728087 6.9570940802646337 5
v -6.3639610306789276 6.3639610306789285 5
v -6.9570940802646328 5.7095395574728096 5
v -7.4832265107229077 5.0001320971764196 5
v -7.9372913791351944 4.2425706314339804 5
v -8.31491579260158 3.4441508912858092 5
v -8.6124630215898801 2.6125620952901616 5
v -8.8270675236290739 1.7558128981451575 5
v -8.9566625400497717 0.88215426296604749 5
v -9 1.1021821192326179e-15 5
v -8.9566625400497717 -0.88215426296604527 5
v -8.8270675236290739 -1.7558128981451553 5
v -8.6124630215898801 -2.6125620952901589 5
v -8.3149157926015818 -3.444150891285807 5
v -7.9372913791351953 -4.2425706314339786 5
v -7.4832265107229095 -5.0001320971764178 5
v -6.9570940802646337 -5.7095395574728069 5
v -6.3639610306789294 -6.3639610306789276 5
v -5.7095395574728132 -6.9570940802646302 5
v -5.0001320971764196 -7.4832265107229068 5
v -4.2425706314339804 -7.9372913791351944 5
v -3.4441508912858132 -8.3149157926015782 5
v -2.612562095290162 -8.6124630215898801 5
v -1.755812898145158 -8.8270675236290721 5
v -0.88215426296604404 -8.9566625400497717 5
v -1.6532731788489267e-15 -9 5
v 0.88215426296604083 -8.9566625400497717 5
v 1.7558128981451548 -8.8270675236290739 5
v 2.6125620952901585 -8.6124630215898801 5
v 3.4441508912858101 -8.31491579260158 5
v 4.2425706314339786 -7.9372913791351953 5
v 5.0001320971764169 -7.4832265107229095 5
v 5.7095395574728105 -6.9570940802646319 5
v 6.3639610306789258 -6.3639610306789294 5
v 6.9570940802646302 -5.7095395574728132 5
v 7.4832265107229068 -5.0001320971764196 5
v 7.9372913791351936 -4.2425706314339813 5
v 8.3149157926015782 -3.4441508912858136 5
v 8.6124630215898801 -2.6125620952901625 5
v 8.8270675236290721 -1.7558128981451584 5
v 8.9566625400497717 -0.8821542629660446 5
v 9 0 17
v 8.9566625400497717 0.88215426296604549 17
v 8.8270675236290739 1.7558128981451542 17
v 8.6124630215898801 2.6125620952901611 17
v 8.31491579260158 3.4441508912858079 17
v 7.9372913791351953 4.2425706314339786 17
v 7.4832265107229068 5.0001320971764196 17
v 6.9570940802646328 5.7095395574728096 17
v 6.3639610306789285 6.3639610306789276 17
v 5.7095395574728096 6.9570940802646328 17
v 5.0001320971764205 7.4832265107229068 17
v 4.2425706314339804 7.9372913791351944 17
v 3.4441508912858083 8.31491579260158 17
v 2.6125620952901611 8.6124630215898801 17
v 1.7558128981451551 8.8270675236290739 17
v 0.88215426296604693 8.9566625400497717 17
v 5.5109105961630896e-16 9 17
v -0.88215426296604582 8.9566625400497717 17
v -1.7558128981451537 8.8270675236290739 17
v -2.6125620952901594 8.6124630215898801 17
v -3.4441508912858074 8.31491579260158 17
v -4.2425706314339795 7.9372913791351953 17
v -5.0001320971764178 7.4832265107229095 17
v -5.7095395574728087 6.9570940802646337 17
v -6.3639610306789276 6.3639610306789285 17
v -6.9570940802646328 5.7095395574728096 17
v -7.4832265107229077 5.0001320971764196 17
v -7.9372913791351944 4.2425706314339804 17
v -8.31491579260158 3.4441508912858092 17
v -8.6124630215898801 2.6125620952901616 17
v -8.8270675236290739 1.7558128981451575 17
v -8.9566625400497717 0.88215426296604749 17
v -9 1.1021821192326179e-15 17
v -8.9566625400497717 -0.88215426296604527 17
v -8.8270675236290739 -1.7558128981451553 17
v -8.6124630215898801 -2.6125620952901589 17
v -8.3149157926015818 -3.444150891285807 17
v -7.9372913791351953 -4.2425706314339786 17
v -7.4832265107229095 -5.0001320971764178 17
v -6.9570940802646337 -5.7095395574728069 17
v -6.3639610306789294 -6.3639610306789276 17
v -5.7095395574728132 -6.9570940802646302 17
v -5.0001320971764196 -7.4832265107229068 17
v -4.2425706314339804 -7.9372913791351944 17
v -3.4441508912858132 -8.3149157926015782 17
v -2.612562095290162 -8.6124630215898801 17
v -1.755812898145158 -8.8270675236290721 17
v -0.88215426296604404 -8.9566625400497717 17
v -1.6532731788489267e-15 -9 17
v 0.88215426296604083 -8.9566625400497717 17
v 1.7558128981451548 -8.8270675236290739 17
v 2.6125620952901585 -8.6124630215898801 17
v 3.4441508912858101 -8.31491579260158 17
v 4.2425706314339786 -7.9372913791351953 17
v 5.0001320971764169 -7.4832265107229095 17
v 5.7095395574728105 -6.9570940802646319 17
v 6.3639610306789258 -6.3639610306789294 17
v 6.9570940802646302 -5.7095395574728132 17
v 7.4832265107229068 -5.0001320971764196 17
v 7.9372913791351936 -4.2425706314339813 17
v 8.3149157926015782 -3.4441508912858136 17
v 8.6124630215898801 -2.6125620952901625 17
v 8.8270675236290721 -1.7558128981451584 17
v 8.9566625400497717 -0.8821542629660446 17
v 16.955181300451471 15.307337294603592 0
v 17.051486767007532 13.346994488012379 0
v 17.339475692386863 11.405530854281027 0
v 17.816374585807296 9.5016437495143453 0
v 19.316756013484369 5.8794025580836387 0
v 20.325789054400566 4.1959326342115482 0
v 21.494972233196734 2.6194716113306811 0
v 22.81304567672052 1.1652016708726425 0
v 24.267315617178561 -0.15287177265114771 0
v 25.843776640059424 -1.3220549514473134 0
v 27.527246563931513 -2.3310879923635071 0
v 29.301512653149675 -3.1702533556221439 0
v 31.149487755362223 -3.8314694200405874 0
v 33.053374860128905 -4.3083683134610169 0
v 34.994838493860257 -4.5963572388403442 0
v 36.955181300451471 -4.6926627053964083 0
v 38.915524107042685 -4.5963572388403477 0
v 40.856987740774038 -4.3083683134610169 0
v 42.760874845540712 -3.8314694200405874 0
v 44.608849947753264 -3.1702533556221439 0
v 46.38311603697143 -2.3310879923635106 0
v 48.066585960843511 -1.322054951447317 0
v 49.643046983724375 -0.15287177265114948 0
v 51.097316924182422 1.1652016708726407 0
v 52.415390367706209 2.6194716113306811 0
v 53.584573546502376 4.1959326342115482 0
v 54.59360658741857 5.8794025580836351 0
v 55.432771950677207 7.6536686473017941 0
v 56.093988015095647 9.5016437495143435 0
v 56.57088690851608 11.40553085428102 0
v 56.858875833895411 13.346994488012376 0
v 56.955181300451471 15.30733729460359 0
v 56.858875833895411 17.267680101194802 0
v 56.57088690851608 19.209143734926158 0
v 56.093988015095647 21.113030839692833 0
v 55.432771950677207 22.961005941905384 0
v 54.593606587418577 24.735272031123543 0
v 53.584573546502384 26.418741954995632 0
v 52.415390367706209 27.995202977876495 0
v 51.097316924182422 29.449472918334543 0
v 49.643046983724389 30.767546361858326 0
v 48.066585960843511 31.936729540654497 0
v 46.38311603697143 32.94576258157069 0
v 44.608849947753278 33.78492794482932 0
v 42.760874845540719 34.446144009247767 0
v 40.856987740774045 34.9230429026682 0
v 38.915524107042678 35.211031828047531 0
v 36.955181300451478 35.307337294603592 0
v 34.994838493860271 35.211031828047531 0
v 33.053374860128905 34.9230429026682 0
v 31.14948775536223 34.446144009247774 0
v 29.301512653149672 33.78492794482932 0
v 27.52724656393152 32.94576258157069 0
v 25.843776640059435 31.9367295406545 0
v 24.267315617178561 30.767546361858329 0
v 22.813045676720524 29.449472918334546 0
v 21.494972233196737 27.995202977876509 0
v 20.325789054400566 26.418741954995635 0
v 19.316756013484376 24.73527203112355 0
v 18.477590650225743 22.961005941905398 0
v 17.816374585807296 21.11303083969284 0
v 17.339475692386866 19.209143734926165 0
v 17.051486767007532 17.267680101194802 0
v 16.955181300451471 15.307337294603592 -5
v 17.051486767007532 13.346994488012379 -5
v 17.339475692386863 11.405530854281027 -5
v 17.816374585807296 9.5016437495143453 -5
v 18.477590650225736 7.6536686473017959 -5
v 19.316756013484369 5.8794025580836387 -5
v 20.325789054400566 4.1959326342115482 -5
v 21.494972233196734 2.6194716113306811 -5
v 22.81304567672052 1.1652016708726425 -5
v 24.267315617178561 -0.15287177265114771 -5
v 25.843776640059424 -1.3220549514473134 -5
v 27.527246563931513 -2.3310879923635071 -5
v 29.301512653149675 -3.1702533556221439 -5
v 31.149487755362223 -3.8314694200405874 -5
v 33.053374860128905 -4.3083683134610169 -5
v 34.994838493860257 -4.5963572388403442 -5
v 36.955181300451471 -4.6926627053964083 -5
v 38.915524107042685 -4.5963572388403477 -5
v 40.856987740774038 -4.3083683134610169 -5
v 42.760874845540712 -3.8314694200405874 -5
v 44.608849947753264 -3.1702533556221439 -5
v 46.38311603697143 -2.3310879923635106 -5
v 48.066585960843511 -1.322054951447317 -5
v 49.643046983724375 -0.15287177265114948 -5
v 51.097316924182422 1.1652016708726407 -5
v 52.415390367706209 2.6194716113306811 -5
v 53.584573546502376 4.1959326342115482 -5
v 54.59360658741857 5.8794025580836351 -5
v 55.432771950677207 7.6536686473017941 -5
v 56.093988015095647 9.5016437495143435 -5
v 56.57088690851608 11.40553085428102 -5
v 56.858875833895411 13.346994488012376 -5
v 56.955181300451471 15.30733729460359 -5
v 56.858875833895411 17.267680101194802 -5
v 56.57088690851608 19.209143734926158 -5
v 56.093988015095647 21.113030839692833 -5
v 55.432771950677207 22.961005941905384 -5
v 54.593606587418577 24.735272031123543 -5
v 53.584573546502384 26.418741954995632 -5
v 52.415390367706209 27.995202977876495 -5
v 51.097316924182422 29.449472918334543 -5
v 49.643046983724389 30.767546361858326 -5
v 48.066585960843511 31.936729540654497 -5
v 46.38311603697143 32.94576258157069 -5
v 44.608849947753278 33.78492794482932 -5
v 42.760874845540719 34.446144009247767 -5
v 40.856987740774045 34.9230429026682 -5
v 38.915524107042678 35.211031828047531 -5
v 36.955181300451478 35.307337294603592 -5
v 34.994838493860271 35.211031828047531 -5
v 33.053374860128905 34.9230429026682 -5
v 31.14948775536223 34.446144009247774 -5
v 29.301512653149672 33.78492794482932 -5
v 27.52724656393152 32.94576258157069 -5
v 25.843776640059435 31.9367295406545 -5
v 24.267315617178561 30.767546361858329 -5
v 22.813045676720524 29.449472918334546 -5
v 21.494972233196737 27.995202977876509 -5
v 20.325789054400566 26.418741954995635 -5
v 19.316756013484376 24.73527203112355 -5
v 18.477590650225743 22.961005941905398 -5
v 17.816374585807296 21.11303083969284 -5
v 17.339475692386866 19.209143734926165 -5
v 17.051486767007532 17.267680101194802 -5
v 27.955181300451471 15.307337294603592 -5
v 27.998518760401701 14.425183031637546 -5
v 28.128113776822396 13.551524396458438 -5
v 28.342718278861589 12.69477519931343 -5
v 28.64026550784989 11.863186403317783 -5
v 29.017889921316275 11.064766663169614 -5
v 29.471954789728564 10.307205197427173 -5
v 29.998087220186839 9.597797737130783 -5
v 30.591220269772542 8.9433762639246641 -5
v 31.245641742978663 8.3502432143389598 -5
v 31.955049203275053 7.8241107838806849 -5
v 32.712610669017494 7.3700459154683973 -5
v 33.511030409165663 6.9924215020020117 -5
v 34.342619205161313 6.6948742730137116 -5
v 35.19936840230632 6.4802697709745178 -5
v 36.073027037485424 6.35067475455382 -5
v 36.955181300451471 6.3073372946035917 -5
v 37.837335563417518 6.35067475455382 -5
v 38.710994198596623 6.4802697709745178 -5
v 39.56774339574163 6.6948742730137116 -5
v 40.39933219173728 6.9924215020020117 -5
v 41.197751931885449 7.3700459154683964 -5
v 41.95531339762789 7.8241107838806823 -5
v 42.66472085792428 8.350243214338958 -5
v 43.319142331130401 8.9433762639246623 -5
v 43.912275380716103 9.597797737130783 -5
v 44.438407811174379 10.307205197427173 -5
v 44.892472679586668 11.06476666316961 -5
v 45.270097093053053 11.863186403317783 -5
v 45.567644322041353 12.69477519931343 -5
v 45.782248824080547 13.551524396458435 -5
v 45.911843840501241 14.425183031637545 -5
v 45.955181300451471 15.30733729460359 -5
v 45.911843840501241 16.189491557569639 -5
v 45.782248824080547 17.063150192748747 -5
v 45.567644322041353 17.91989938989375 -5
v 45.270097093053053 18.7514881858894 -5
v 44.892472679586668 19.549907926037569 -5
v 44.438407811174379 20.30746939178001 -5
v 43.912275380716103 21.0168768520764 -5
v 43.319142331130401 21.671298325282521 -5
v 42.664720857924287 22.264431374868224 -5
v 41.95531339762789 22.790563805326499 -5
v 41.197751931885449 23.244628673738788 -5
v 40.399332191737287 23.62225308720517 -5
v 39.56774339574163 23.919800316193474 -5
v 38.71099419859663 24.134404818232664 -5
v 37.837335563417518 24.263999834653362 -5
v 36.955181300451471 24.307337294603592 -5
v 36.073027037485431 24.263999834653362 -5
v 35.19936840230632 24.134404818232667 -5
v 34.342619205161313 23.919800316193474 -5
v 33.511030409165663 23.622253087205173 -5
v 32.712610669017494 23.244628673738788 -5
v 31.955049203275053 22.790563805326499 -5
v 31.245641742978663 22.264431374868224 -5
v 30.591220269772545 21.671298325282521 -5
v 29.998087220186839 21.016876852076404 -5
v 29.471954789728564 20.30746939178001 -5
v 29.017889921316279 19.549907926037573 -5
v 28.640265507849893 18.751488185889407 -5
v 28.342718278861589 17.919899389893754 -5
v 28.128113776822399 17.063150192748751 -5
v 27.998518760401701 16.189491557569635 -5
v 27.955181300451471 15.307337294603592 -17
v 27.998518760401701 14.425183031637546 -17
v 28.128113776822396 13.551524396458438 -17
v 28.342718278861589 12.69477519931343 -17
v 28.64026550784989 11.863186403317783 -17
v 29.017889921316275 11.064766663169614 -17
v 29.471954789728564 10.307205197427173 -17
v 29.998087220186839 9.597797737130783 -17
v 30.591220269772542 8.9433762639246641 -17
v 31.245641742978663 8.3502432143389598 -17
v 31.955049203275053 7.8241107838806849 -17
v 32.712610669017494 7.3700459154683973 -17
v 33.511030409165663 6.9924215020020117 -17
v 34.342619205161313 6.6948742730137116 -17
v 35.19936840230632 6.4802697709745178 -17
v 36.073027037485424 6.35067475455382 -17
v 36.955181300451471 6.3073372946035917 -17
v 37.837335563417518 6.35067475455382 -17
v 38.710994198596623 6.4802697709745178 -17
v 39.56774339574163 6.6948742730137116 -17
v 40.39933219173728 6.9924215020020117 -17
v 41.197751931885449 7.3700459154683964 -17
v 41.95531339762789 7.8241107838806823 -17
v 42.66472085792428 8.350243214338958 -17
v 43.319142331130401 8.9433762639246623 -17
v 43.912275380716103 9.597797737130783 -17
v 44.438407811174379 10.307205197427173 -17
v 44.892472679586668 11.06476666316961 -17
v 45.270097093053053 11.863186403317783 -17
v 45.567644322041353 12.69477519931343 -17
v 45.782248824080547 13.551524396458435 -17
v 45.911843840501241 14.425183031637545 -17
v 45.955181300451471 15.30733729460359 -17
v 45.911843840501241 16.189491557569639 -17
v 45.782248824080547 17.063150192748747 -17
v 45.567644322041353 17.91989938989375 -17
v 45.270097093053053 18.7514881858894 -17
v 44.892472679586668 19.549907926037569 -17
v 44.438407811174379 20.30746939178001 -17
v 43.912275380716103 21.0168768520764 -17
v 43.319142331130401 21.671298325282521 -17
v 42.664720857924287 22.264431374868224 -17
v 41.95531339762789 22.790563805326499 -17
v 41.197751931885449 23.244628673738788 -17
v 40.399332191737287 23.62225308720517 -17
v 39.56774339574163 23.919800316193474 -17
v 38.71099419859663 24.134404818232664 -17
v 37.837335563417518 24.263999834653362 -17
v 36.955181300451471 24.307337294603592 -17
v 36.073027037485431 24.263999834653362 -17
v 35.19936840230632 24.134404818232667 -17
v 34.342619205161313 23.919800316193474 -17
v 33.511030409165663 23.622253087205173 -17
v 32.712610669017494 23.244628673738788 -17
v 31.955049203275053 22.790563805326499 -17
v 31.245641742978663 22.264431374868224 -17
v 30.591220269772545 21.671298325282521 -17
v 29.998087220186839 21.016876852076404 -17
v 29.471954789728564 20.30746939178001 -17
v 29.017889921316279 19.549907926037573 -17
v 28.640265507849893 18.751488185889407 -17
v 28.342718278861589 17.919899389893754 -17
v 28.128113776822399 17.063150192748751 -17
v 27.998518760401701 16.189491557569635 -17
f 1 2 66
f 1 66 65
f 2 3 67
f 2 67 66
f 3 4 68
f 3 68 67
f 4 5 69
f 4 69 68
f 5 6 70
f 5 70 69
f 6 7 71
f 6 71 70
f 7 8 72
f 7 72 71
f 8 9 73
f 8 73 72
f 9 10 74
f 9 74 73
f 10 11 75
f 10 75 74
f 11 12 76
f 11 76 75
f 12 13 77
f 12 77 76
f 13 14 78
f 13 78 77
f 14 15 79
f 14 79 78
f 15 16 80
f 15 80 79
f 16 17 81
f 16 81 80
f 17 18 82
f 17 82 81
f 18 19 83
f 18 83 82
f 19 20 84
f 19 84 83
f 20 21 85
f 20 85 84
f 21 22 86
f 21 86 85
f 22 23 87
f 22 87 86
f 23 24 88
f 23 88 87
f 24 25 89
f 24 89 88
f 25 26 90
f 25 90 89
f 26 27 91
f 26 91 90
f 27 28 92
f 27 92 91
f 28 29 93
f 28 93 92
f 29 30 94
f 29 94 93
f 30 31 95
f 30 95 94
f 31 32 96
f 31 96 95
f 32 33 97
f 32 97 96
f 33 34 98
f 33 98 97
f 34 35 99
f 34 99 98
f 35 36 100
f 35 100 99
f 36 37 101
f 36 101 100
f 37 38 102
f 37 102 101
f 38 39 103
f 38 103 102
f 39 40 104
f 39 104 103
f 40 41 105
f 40 105 104
f 41 42 106
f 41 106 105
f 42 43 107
f 42 107 106
f 43 44 108
f 43 108 107
f 44 45 109
f 44 109 108
f 45 46 110
f 45 110 109
f 46 47 111
f 46 111 110
f 47 48 112
f 47 112 111
f 48 49 113
f 48 113 112
f 49 50 114
f 49 114 113
f 50 51 115
f 50 115 114
f 51 52 116
f 51 116 115
f 52 53 117
f 52 117 116
f 53 54 118
f 53 118 117
f 54 55 119
f 54 119 118
f 55 56 120
f 55 120 119
f 56 57 121
f 56 121 120
f 57 58 122
f 57 122 121
f 58 59 123
f 58 123 122
f 59 60 124
f 59 124 123
f 60 61 125
f 60 125 124
f 61 62 126
f 61 126 125
f 62 63 127
f 62 127 126
f 63 64 128
f 63 128 127
f 64 1 65
f 64 65 128
f 129 130 194
f 129 194 193
f 130 131 195
f 130 195 194
f 131 132 196
f 131 196 195
f 132 133 197
f 132 197 196
f 133 134 198
f 133 198 197
f 134 135 199
f 134 199 198
f 135 136 200
f 135 200 199
f 136 137 201
f 136 201 200
f 137 138 202
f 137 202 201
f 138 139 203
f 138 203 202
f 139 140 204
f 139 204 203
f 140 141 205
f 140 205 204
f 141 142 206
f 141 206 205
f 142 143 207
f 142 207 206
f 143 144 208
f 143 208 207
f 144 145 209
f 144 209 208
f 145 146 210
f 145 210 209
f 146 147 211
f 146 211 210
f 147 148 212
f 147 212 211
f 148 149 213
f 148 213 212
f 149 150 214
f 149 214 213
f 150 151 215
f 150 215 214
f 151 152 216
f 151 216 215
f 152 153 217
f 152 217 216
f 153 154 218
f 153 218 217
f 154 155 219
f 154 219 218
f 155 156 220
f 155 220 219
f 156 157 221
f 156 221 220
f 157 158 222
f 157 222 221
f 158 159 223
f 158 223 222
f 159 160 224
f 159 224 223
f 160 161 225
f 160 225 224
f 161 162 226
f 161 226 225
f 162 163 227
f 162 227 226
f 163 164 228
f 163 228 227
f 164 165 229
f 164 229 228
f 165 166 230
f 165 230 229
f 166 167 231
f 166 231 230
f 167 168 232
f 167 232 231
f 168 169 233
f 168 233 232
f 169 170 234
f 169 234 233
f 170 171 235
f 170 235 234
f 171 172 236
f 171 236 235
f 172 173 237
f 172 237 236
f 173 174 238
f 173 238 237
f 174 175 239
f 174 239 238
f 175 176 240
f 175 240 239
f 176 177 241
f 176 241 240
f 177 178 242
f 177 242 241
f 178 179 243
f 178 243 242
f 179 180 244
f 179 244 243
f 180 181 245
f 180 245 244
f 181 182 246
f 181 246 245
f 182 183 247
f 182 247 246
f 183 184 248
f 183 248 247
f 184 185 249
f 184 249 248
f 185 186 250
f 185 250 249
f 186 187 251
f 186 251 250
f 187 188 252
f 187 252 251
f 188 189 253
f 188 253 252
f 189 190 254
f 189 254 253
f 190 191 255
f 190 255 254
f 191 192 256
f 191 256 255
f 192 129 193
f 192 193 256
f 65 66 130
f 65 130 129
f 66 67 131
f 66 131 130
f 67 68 132
f 67 132 131
f 68 69 133
f 68 133 132
f 69 70 134
f 69 134 133
f 70 71 135
f 70 135 134
f 71 72 136
f 71 136 135
f 72 73 137
f 72 137 136
f 73 74 138
f 73 138 137
f 74 75 139
f 74 139 138
f 75 76 140
f 75 140 139
f 76 77 141
f 76 141 140
f 77 78 142
f 77 142 141
f 78 79 143
f 78 143 142
f 79 80 144
f 79 144 143
f 80 81 145
f 80 145 144
f 81 82 146
f 81 146 145
f 82 83 147
f 82 147 146
f 83 84 148
f 83 148 147
f 84 85 149
f 84 149 148
f 85 86 150
f 85 150 149
f 86 87 151
f 86 151 150
f 87 88 152
f 87 152 151
f 88 89 153
f 88 153 152
f 89 90 154
f 89 154 153
f 90 91 155
f 90 155 154
f 91 92 156
f 91 156 155
f 92 93 157
f 92 157 156
f 93 94 158
f 93 158 157
f 94 95 159
f 94 159 158
f 95 96 160
f 95 160 159
f 96 97 161
f 96 161 160
f 97 98 162
f 97 162 161
f 98 99 163
f 98 163 162
f 99 100 164
f 99 164 163
f 100 101 165
f 100 165 164
f 101 102 166
f 101 166 165
f 102 103 167
f 102 167 166
f 103 104 168
f 103 168 167
f 104 105 169
f 104 169 168
f 105 106 170
f 105 170 169
f 106 107 171
f 106 171 170
f 107 108 172
f 107 172 171
f 108 109 173
f 108 173 172
f 109 110 174
f 109 174 173
f 110 111 175
f 110 175 174
f 111 112 176
f 111 176 175
f 112 113 177
f 112 177 176
f 113 114 178
f 113 178 177
f 114 115 179
f 114 179 178
f 115 116 180
f 115 180 179
f 116 117 181
f 116 181 180
f 117 118 182
f 117 182 181
f 118 119 183
f 118 183 182
f 119 120 184
f 119 184 183
f 120 121 185
f 120 185 184
f 121 122 186
f 121 186 185
f 122 123 187
f 122 187 186
f 123 124 188
f 123 188 187
f 124 125 189
f 124 189 188
f 125 126 190
f 125 190 189
f 126 127 191
f 126 191 190
f 127 128 192
f 127 192 191
f 128 65 129
f 128 129 192
f 1 3 2
f 1 4 3
f 1 5 4
f 1 6 5
f 1 7 6
f 1 8 7
f 1 9 8
f 1 10 9
f 1 11 10
f 1 12 11
f 1 13 12
f 1 14 13
f 1 15 14
f 1 16 15
f 1 17 16
f 1 18 17
f 1 19 18
f 1 20 19
f 1 21 20
f 1 22 21
f 1 23 22
f 1 24 23
f 1 25 24
f 1 26 25
f 1 27 26
f 1 28 27
f 1 29 28
f 1 30 29
f 1 31 30
f 1 32 31
f 1 33 32
f 1 34 33
f 1 35 34
f 1 36 35
f 1 37 36
f 1 38 37
f 1 39 38
f 1 40 39
f 1 41 40
f 1 42 41
f 1 43 42
f 1 44 43
f 1 45 44
f 1 46 45
f 1 47 46
f 1 48 47
f 1 49 48
f 1 50 49
f 1 51 50
f 1 52 51
f 1 53 52
f 1 54 53
f 1 55 54
f 1 56 55
f 1 57 56
f 1 58 57
f 1 59 58
f 1 60 59
f 1 61 60
f 1 62 61
f 1 63 62
f 1 64 63
f 193 194 195
f 193 195 196
f 193 196 197
f 193 197 198
f 193 198 199
f 193 199 200
f 193 200 201
f 193 201 202
f 193 202 203
f 193 203 204
f 193 204 205
f 193 205 206
f 193 206 207
f 193 207 208
f 193 208 209
f 193 209 210
f 193 210 211
f 193 211 212
f 193 212 213
f 193 213 214
f 193 214 215
f 193 215 216
f 193 216 217
f 193 217 218
f 193 218 219
f 193 219 220
f 193 220 221
f 193 221 222
f 193 222 223
f 193 223 224
f 193 224 225
f 193 225 226
f 193 226 227
f 193 227 228
f 193 228 229
f 193 229 230
f 193 230 231
f 193 231 232
f 193 232 233
f 193 233 234
f 193 234 235
f 193 235 236
f 193 236 237
f 193 237 238
f 193 238 239
f 193 239 240
f 193 240 241
f 193 241 242
f 193 242 243
f 193 243 244
f 193 244 245
f 193 245 246
f 193 246 247
f 193 247 248
f 193 248 249
f 193 249 250
f 193 250 251
f 193 251 252
f 193 252 253
f 193 253 254
f 193 254 255
f 193 255 256
f 321 258 257
f 320 321 257
f 322 259 258
f 321 322 258
f 323 260 259
f 322 323 259
f 324 5 260
f 323 324 260
f 325 261 5
f 324 325 5
f 326 262 261
f 325 326 261
f 327 263 262
f 326 327 262
f 328 264 263
f 327 328 263
f 329 265 264
f 328 329 264
f 330 266 265
f 329 330 265
f 331 267 266
f 330 331 266
f 332 268 267
f 331 332 267
f 333 269 268
f 332 333 268
f 334 270 269
f 333 334 269
f 335 271 270
f 334 335 270
f 336 272 271
f 335 336 271
f 337 273 272
f 336 337 272
f 338 274 273
f 337 338 273
f 339 275 274
f 338 339 274
f 340 276 275
f 339 340 275
f 341 277 276
f 340 341 276
f 342 278 277
f 341 342 277
f 343 279 278
f 342 343 278
f 344 280 279
f 343 344 279
f 345 281 280
f 344 345 280
f 346 282 281
f 345 346 281
f 347 283 282
f 346 347 282
f 348 284 283
f 347 348 283
f 349 285 284
f 348 349 284
f 350 286 285
f 349 350 285
f 351 287 286
f 350 351 286
f 352 288 287
f 351 352 287
f 353 289 288
f 352 353 288
f 354 290 289
f 353 354 289
f 355 291 290
f 354 355 290
f 356 292 291
f 355 356 291
f 357 293 292
f 356 357 292
f 358 294 293
f 357 358 293
f 359 295 294
f 358 359 294
f 360 296 295
f 359 360 295
f 361 297 296
f 360 361 296
f 362 298 297
f 361 362 297
f 363 299 298
f 362 363 298
f 364 300 299
f 363 364 299
f 365 301 300
f 364 365 300
f 366 302 301
f 365 366 301
f 367 303 302
f 366 367 302
f 368 304 303
f 367 368 303
f 369 305 304
f 368 369 304
f 370 306 305
f 369 370 305
f 371 307 306
f 370 371 306
f 372 308 307
f 371 372 307
f 373 309 308
f 372 373 308
f 374 310 309
f 373 374 309
f 375 311 310
f 374 375 310
f 376 312 311
f 375 376 311
f 377 313 312
f 376 377 312
f 378 314 313
f 377 378 313
f 379 315 314
f 378 379 314
f 380 316 315
f 379 380 315
f 381 317 316
f 380 381 316
f 382 318 317
f 381 382 317
f 383 319 318
f 382 383 318
f 320 257 319
f 383 320 319
f 449 385 384
f 448 449 384
f 450 386 385
f 449 450 385
f 451 387 386
f 450 451 386
f 452 388 387
f 451 452 387
f 453 389 388
f 452 453 388
f 454 390 389
f 453 454 389
f 455 391 390
f 454 455 390
f 456 392 391
f 455 456 391
f 457 393 392
f 456 457 392
f 458 394 393
f 457 458 393
f 459 395 394
f 458 459 394
f 460 396 395
f 459 460 395
f 461 397 396
f 460 461 396
f 462 398 397
f 461 462 397
f 463 399 398
f 462 463 398
f 464 400 399
f 463 464 399
f 465 401 400
f 464 465 400
f 466 402 401
f 465 466 401
f 467 403 402
f 466 467 402
f 468 404 403
f 467 468 403
f 469 405 404
f 468 469 404
f 470 406 405
f 469 470 405
f 471 407 406
f 470 471 406
f 472 408 407
f 471 472 407
f 473 409 408
f 472 473 408
f 474 410 409
f 473 474 409
f 475 411 410
f 474 475 410
f 476 412 411
f 475 476 411
f 477 413 412
f 476 477 412
f 478 414 413
f 477 478 413
f 479 415 414
f 478 479 414
f 480 416 415
f 479 480 415
f 481 417 416
f 480 481 416
f 482 418 417
f 481 482 417
f 483 419 418
f 482 483 418
f 484 420 419
f 483 484 419
f 485 421 420
f 484 485 420
f 486 422 421
f 485 486 421
f 487 423 422
f 486 487 422
f 488 424 423
f 487 488 423
f 489 425 424
f 488 489 424
f 490 426 425
f 489 490 425
f 491 427 426
f 490 491 426
f 492 428 427
f 491 492 427
f 493 429 428
f 492 493 428
f 494 430 429
f 493 494 429
f 495 431 430
f 494 495 430
f 496 432 431
f 495 496 431
f 497 433 432
f 496 497 432
f 498 434 433
f 497 498 433
f 499 435 434
f 498 499 434
f 500 436 435
f 499 500 435
f 501 437 436
f 500 501 436
f 502 438 437
f 501 502 437
f 503 439 438
f 502 503 438
f 504 440 439
f 503 504 439
f 505 441 440
f 504 505 440
f 506 442 441
f 505 506 441
f 507 443 442
f 506 507 442
f 508 444 443
f 507 508 443
f 509 445 444
f 508 509 444
f 510 446 445
f 509 510 445
f 511 447 446
f 510 511 446
f 448 384 447
f 511 448 447
f 385 321 320
f 384 385 320
f 386 322 321
f 385 386 321
f 387 323 322
f 386 387 322
f 388 324 323
f 387 388 323
f 389 325 324
f 388 389 324
f 390 326 325
f 389 390 325
f 391 327 326
f 390 391 326
f 392 328 327
f 391 392 327
f 393 329 328
f 392 393 328
f 394 330 329
f 393 394 329
f 395 331 330
f 394 395 330
f 396 332 331
f 395 396 331
f 397 333 332
f 396 397 332
f 398 334 333
f 397 398 333
f 399 335 334
f 398 399 334
f 400 336 335
f 399 400 335
f 401 337 336
f 400 401 336
f 402 338 337
f 401 402 337
f 403 339 338
f 402 403 338
f 404 340 339
f 403 404 339
f 405 341 340
f 404 405 340
f 406 342 341
f 405 406 341
f 407 343 342
f 406 407 342
f 408 344 343
f 407 408 343
f 409 345 344
f 408 409 344
f 410 346 345
f 409 410 345
f 411 347 346
f 410 411 346
f 412 348 347
f 411 412 347
f 413 349 348
f 412 413 348
f 414 350 349
f 413 414 349
f 415 351 350
f 414 415 350
f 416 352 351
f 415 416 351
f 417 353 352
f 416 417 352
f 418 354 353
f 417 418 353
f 419 355 354
f 418 419 354
f 420 356 355
f 419 420 355
f 421 357 356
f 420 421 356
f 422 358 357
f 421 422 357
f 423 359 358
f 422 423 358
f 424 360 359
f 423 424 359
f 425 361 360
f 424 425 360
f 426 362 361
f 425 426 361
f 427 363 362
f 426 427 362
f 428 364 363
f 427 428 363
f 429 365 364
f 428 429 364
f 430 366 365
f 429 430 365
f 431 367 366
f 430 431 366
f 432 368 367
f 431 432 367
f 433 369 368
f 432 433 368
f 434 370 369
f 433 434 369
f 435 371 370
f 434 435 370
f 436 372 371
f 435 436 371
f 437 373 372
f 436 437 372
f 438 374 373
f 437 438 373
f 439 375 374
f 438 439 374
f 440 376 375
f 439 440 375
f 441 377 376
f 440 441 376
f 442 378 377
f 441 442 377
f 443 379 378
f 442 443 378
f 444 380 379
f 443 444 379
f 445 381 380
f 444 445 380
f 446 382 381
f 445 446 381
f 447 383 382
f 446 447 382
f 384 320 383
f 447 384 383
f 258 259 257
f 259 260 257
f 260 5 257
f 5 261 257
f 261 262 257
f 262 263 257
f 263 264 257
f 264 265 257
f 265 266 257
f 266 267 257
f 267 268 257
f 268 269 257
f 269 270 257
f 270 271 257
f 271 272 257
f 272 273 257
f 273 274 257
f 274 275 257
f 275 276 257
f 276 277 257
f 277 278 257
f 278 279 257
f 279 280 257
f 280 281 257
f 281 282 257
f 282 283 257
f 283 284 257
f 284 285 257
f 285 286 257
f 286 287 257
f 287 288 257
f 288 289 257
f 289 290 257
f 290 291 257
f 291 292 257
f 292 293 257
f 293 294 257
f 294 295 257
f 295 296 257
f 296 297 257
f 297 298 257
f 298 299 257
f 299 300 257
f 300 301 257
f 301 302 257
f 302 303 257
f 303 304 257
f 304 305 257
f 305 306 257
f 306 307 257
f 307 308 257
f 308 309 257
f 309 310 257
f 310 311 257
f 311 312 257
f 312 313 257
f 313 314 257
f 314 315 257
f 315 316 257
f 316 317 257
f 317 318 257
f 318 319 257
f 450 449 448
f 451 450 448
f 452 451 448
f 453 452 448
f 454 453 448
f 455 454 448
f 456 455 448
f 457 456 448
f 458 457 448
f 459 458 448
f 460 459 448
f 461 460 448
f 462 461 448
f 463 462 448
f 464 463 448
f 465 464 448
f 466 465 448
f 467 466 448
f 468 467 448
f 469 468 448
f 470 469 448
f 471 470 448
f 472 471 448
f 473 472 448
f 474 473 448
f 475 474 448
f 476 475 448
f 477 476 448
f 478 477 448
f 479 478 448
f 480 479 448
f 481 480 448
f 482 481 448
f 483 482 448
f 484 483 448
f 485 484 448
f 486 485 448
f 487 486 448
f 488 487 448
f 489 488 448
f 490 489 448
f 491 490 448
f 492 491 448
f 493 492 448
f 494 493 448
f 495 494 448
f 496 495 448
f 497 496 448
f 498 497 448
f 499 498 448
f 500 499 448
f 501 500 448
f 502 501 448
f 503 502 448
f 504 503 448
f 505 504 448
f 506 505 448
f 507 506 448
f 508 507 448
f 509 508 448
f 510 509 448
f 511 510 448
